<?xml version="1.0" encoding="UTF-8" standalone="no"?>
<!DOCTYPE svg PUBLIC "-//W3C//DTD SVG 1.1//EN" "http://www.w3.org/Graphics/SVG/1.1/DTD/svg11.dtd">
<svg width="100%" height="100%" viewBox="0 0 600 600" version="1.1" xmlns="http://www.w3.org/2000/svg" xmlns:xlink="http://www.w3.org/1999/xlink" xml:space="preserve" xmlns:serif="http://www.serif.com/" style="fill-rule:evenodd;clip-rule:evenodd;stroke-linejoin:round;stroke-miterlimit:2;">
    <g id="motif-bg-tesalation" transform="matrix(1,0,0,1,650,0)">
        <rect x="-650" y="0" width="600" height="600" style="fill:none;"/>
        <clipPath id="_clip1">
            <rect x="-650" y="0" width="600" height="600"/>
        </clipPath>
        <g clip-path="url(#_clip1)">
            <g transform="matrix(1,0,0,1,-650,0)">
                <rect x="0" y="0" width="600" height="600" style="fill:rgb(231,217,193);"/>
            </g>
            <g>
                <g transform="matrix(1,0,0,1,-650,0)">
                    <path d="M50,50L100,0L100,100L50,50Z" style="fill:rgb(236,225,206);"/>
                </g>
                <g transform="matrix(1,0,0,1,-650,0)">
                    <path d="M0,0L0,100L50,50L0,0Z" style="fill:rgb(236,225,206);"/>
                </g>
                <g transform="matrix(0,-1,1,0,-550,100)">
                    <path d="M50,50L100,0L100,100L50,50Z" style="fill:rgb(236,225,206);"/>
                </g>
                <g transform="matrix(0,-1,1,0,-550,100)">
                    <path d="M0,0L0,100L50,50L0,0Z" style="fill:rgb(236,225,206);"/>
                </g>
                <g transform="matrix(1,0,0,1,-550,100)">
                    <path d="M50,50L100,0L100,100L50,50Z" style="fill:rgb(236,225,206);"/>
                </g>
                <g transform="matrix(1,0,0,1,-550,100)">
                    <path d="M0,0L0,100L50,50L0,0Z" style="fill:rgb(236,225,206);"/>
                </g>
                <g transform="matrix(0,-1,1,0,-450,200)">
                    <path d="M50,50L100,0L100,100L50,50Z" style="fill:rgb(236,225,206);"/>
                </g>
                <g transform="matrix(0,-1,1,0,-450,200)">
                    <path d="M0,0L0,100L50,50L0,0Z" style="fill:rgb(236,225,206);"/>
                </g>
                <g transform="matrix(0,-1,1,0,-650,200)">
                    <path d="M50,50L100,0L100,100L50,50Z" style="fill:rgb(236,225,206);"/>
                </g>
                <g transform="matrix(0,-1,1,0,-650,200)">
                    <path d="M0,0L0,100L50,50L0,0Z" style="fill:rgb(236,225,206);"/>
                </g>
                <g transform="matrix(1,0,0,1,-450,0)">
                    <path d="M50,50L100,0L100,100L50,50Z" style="fill:rgb(236,225,206);"/>
                </g>
                <g transform="matrix(1,0,0,1,-450,0)">
                    <path d="M0,0L0,100L50,50L0,0Z" style="fill:rgb(236,225,206);"/>
                </g>
                <g transform="matrix(0,-1,1,0,-350,100)">
                    <path d="M50,50L100,0L100,100L50,50Z" style="fill:rgb(236,225,206);"/>
                </g>
                <g transform="matrix(0,-1,1,0,-350,100)">
                    <path d="M0,0L0,100L50,50L0,0Z" style="fill:rgb(236,225,206);"/>
                </g>
                <g transform="matrix(1,0,0,1,-250,-0)">
                    <path d="M50,50L100,0L100,100L50,50Z" style="fill:rgb(236,225,206);"/>
                </g>
                <g transform="matrix(1,0,0,1,-250,-0)">
                    <path d="M0,0L0,100L50,50L0,0Z" style="fill:rgb(236,225,206);"/>
                </g>
                <g transform="matrix(0,-1,1,0,-150,100)">
                    <path d="M50,50L100,0L100,100L50,50Z" style="fill:rgb(236,225,206);"/>
                </g>
                <g transform="matrix(0,-1,1,0,-150,100)">
                    <path d="M0,0L0,100L50,50L0,0Z" style="fill:rgb(236,225,206);"/>
                </g>
                <g transform="matrix(1,0,0,1,-350,100)">
                    <path d="M50,50L100,0L100,100L50,50Z" style="fill:rgb(236,225,206);"/>
                </g>
                <g transform="matrix(1,0,0,1,-350,100)">
                    <path d="M0,0L0,100L50,50L0,0Z" style="fill:rgb(236,225,206);"/>
                </g>
                <g transform="matrix(1,0,0,1,-150,100)">
                    <path d="M50,50L100,0L100,100L50,50Z" style="fill:rgb(236,225,206);"/>
                </g>
                <g transform="matrix(1,0,0,1,-150,100)">
                    <path d="M0,0L0,100L50,50L0,0Z" style="fill:rgb(236,225,206);"/>
                </g>
                <g transform="matrix(0,-1,1,0,-250,200)">
                    <path d="M50,50L100,0L100,100L50,50Z" style="fill:rgb(236,225,206);"/>
                </g>
                <g transform="matrix(0,-1,1,0,-250,200)">
                    <path d="M0,0L0,100L50,50L0,0Z" style="fill:rgb(236,225,206);"/>
                </g>
                <g transform="matrix(1,0,0,1,-550,300)">
                    <path d="M50,50L100,0L100,100L50,50Z" style="fill:rgb(236,225,206);"/>
                </g>
                <g transform="matrix(1,0,0,1,-550,300)">
                    <path d="M0,0L0,100L50,50L0,0Z" style="fill:rgb(236,225,206);"/>
                </g>
                <g transform="matrix(0,-1,1,0,-450,400)">
                    <path d="M50,50L100,0L100,100L50,50Z" style="fill:rgb(236,225,206);"/>
                </g>
                <g transform="matrix(0,-1,1,0,-450,400)">
                    <path d="M0,0L0,100L50,50L0,0Z" style="fill:rgb(236,225,206);"/>
                </g>
                <g transform="matrix(0,-1,1,0,-650,400)">
                    <path d="M50,50L100,0L100,100L50,50Z" style="fill:rgb(236,225,206);"/>
                </g>
                <g transform="matrix(0,-1,1,0,-650,400)">
                    <path d="M0,0L0,100L50,50L0,0Z" style="fill:rgb(236,225,206);"/>
                </g>
                <g transform="matrix(1,0,0,1,-350,300)">
                    <path d="M50,50L100,0L100,100L50,50Z" style="fill:rgb(236,225,206);"/>
                </g>
                <g transform="matrix(1,0,0,1,-350,300)">
                    <path d="M0,0L0,100L50,50L0,0Z" style="fill:rgb(236,225,206);"/>
                </g>
                <g transform="matrix(1,0,0,1,-150,300)">
                    <path d="M50,50L100,0L100,100L50,50Z" style="fill:rgb(236,225,206);"/>
                </g>
                <g transform="matrix(1,0,0,1,-150,300)">
                    <path d="M0,0L0,100L50,50L0,0Z" style="fill:rgb(236,225,206);"/>
                </g>
                <g transform="matrix(0,-1,1,0,-250,400)">
                    <path d="M50,50L100,0L100,100L50,50Z" style="fill:rgb(236,225,206);"/>
                </g>
                <g transform="matrix(0,-1,1,0,-250,400)">
                    <path d="M0,0L0,100L50,50L0,0Z" style="fill:rgb(236,225,206);"/>
                </g>
                <g transform="matrix(1,0,0,1,-550,500)">
                    <path d="M50,50L100,0L100,100L50,50Z" style="fill:rgb(236,225,206);"/>
                </g>
                <g transform="matrix(1,0,0,1,-550,500)">
                    <path d="M0,0L0,100L50,50L0,0Z" style="fill:rgb(236,225,206);"/>
                </g>
                <g transform="matrix(0,-1,1,0,-450,600)">
                    <path d="M50,50L100,0L100,100L50,50Z" style="fill:rgb(236,225,206);"/>
                </g>
                <g transform="matrix(0,-1,1,0,-450,600)">
                    <path d="M0,0L0,100L50,50L0,0Z" style="fill:rgb(236,225,206);"/>
                </g>
                <g transform="matrix(0,-1,1,0,-650,600)">
                    <path d="M50,50L100,0L100,100L50,50Z" style="fill:rgb(236,225,206);"/>
                </g>
                <g transform="matrix(0,-1,1,0,-650,600)">
                    <path d="M0,0L0,100L50,50L0,0Z" style="fill:rgb(236,225,206);"/>
                </g>
                <g transform="matrix(1,0,0,1,-350,500)">
                    <path d="M50,50L100,0L100,100L50,50Z" style="fill:rgb(236,225,206);"/>
                </g>
                <g transform="matrix(1,0,0,1,-350,500)">
                    <path d="M0,0L0,100L50,50L0,0Z" style="fill:rgb(236,225,206);"/>
                </g>
                <g transform="matrix(1,0,0,1,-150,500)">
                    <path d="M50,50L100,0L100,100L50,50Z" style="fill:rgb(236,225,206);"/>
                </g>
                <g transform="matrix(1,0,0,1,-150,500)">
                    <path d="M0,0L0,100L50,50L0,0Z" style="fill:rgb(236,225,206);"/>
                </g>
                <g transform="matrix(0,-1,1,0,-250,600)">
                    <path d="M50,50L100,0L100,100L50,50Z" style="fill:rgb(236,225,206);"/>
                </g>
                <g transform="matrix(0,-1,1,0,-250,600)">
                    <path d="M0,0L0,100L50,50L0,0Z" style="fill:rgb(236,225,206);"/>
                </g>
                <g transform="matrix(1,0,0,1,-650,200)">
                    <path d="M50,50L100,0L100,100L50,50Z" style="fill:rgb(236,225,206);"/>
                </g>
                <g transform="matrix(1,0,0,1,-650,200)">
                    <path d="M0,0L0,100L50,50L0,0Z" style="fill:rgb(236,225,206);"/>
                </g>
                <g transform="matrix(0,-1,1,0,-550,300)">
                    <path d="M50,50L100,0L100,100L50,50Z" style="fill:rgb(236,225,206);"/>
                </g>
                <g transform="matrix(0,-1,1,0,-550,300)">
                    <path d="M0,0L0,100L50,50L0,0Z" style="fill:rgb(236,225,206);"/>
                </g>
                <g transform="matrix(1,0,0,1,-450,200)">
                    <path d="M50,50L100,0L100,100L50,50Z" style="fill:rgb(236,225,206);"/>
                </g>
                <g transform="matrix(1,0,0,1,-450,200)">
                    <path d="M0,0L0,100L50,50L0,0Z" style="fill:rgb(236,225,206);"/>
                </g>
                <g transform="matrix(1,0,0,1,-250,200)">
                    <path d="M50,50L100,0L100,100L50,50Z" style="fill:rgb(236,225,206);"/>
                </g>
                <g transform="matrix(1,0,0,1,-250,200)">
                    <path d="M0,0L0,100L50,50L0,0Z" style="fill:rgb(236,225,206);"/>
                </g>
                <g transform="matrix(0,-1,1,0,-350,300)">
                    <path d="M50,50L100,0L100,100L50,50Z" style="fill:rgb(236,225,206);"/>
                </g>
                <g transform="matrix(0,-1,1,0,-350,300)">
                    <path d="M0,0L0,100L50,50L0,0Z" style="fill:rgb(236,225,206);"/>
                </g>
                <g transform="matrix(0,-1,1,0,-150,300)">
                    <path d="M50,50L100,0L100,100L50,50Z" style="fill:rgb(236,225,206);"/>
                </g>
                <g transform="matrix(0,-1,1,0,-150,300)">
                    <path d="M0,0L0,100L50,50L0,0Z" style="fill:rgb(236,225,206);"/>
                </g>
                <g transform="matrix(1,0,0,1,-650,398.113431)">
                    <path d="M50,50L100,0L100,100L50,50Z" style="fill:rgb(236,225,206);"/>
                </g>
                <g transform="matrix(1,0,0,1,-650,398.113431)">
                    <path d="M0,0L0,100L50,50L0,0Z" style="fill:rgb(236,225,206);"/>
                </g>
                <g transform="matrix(0,-1,1,0,-550,498.113431)">
                    <path d="M50,50L100,0L100,100L50,50Z" style="fill:rgb(236,225,206);"/>
                </g>
                <g transform="matrix(0,-1,1,0,-550,498.113431)">
                    <path d="M0,0L0,100L50,50L0,0Z" style="fill:rgb(236,225,206);"/>
                </g>
                <g transform="matrix(1,0,0,1,-450,398.113431)">
                    <path d="M50,50L100,0L100,100L50,50Z" style="fill:rgb(236,225,206);"/>
                </g>
                <g transform="matrix(1,0,0,1,-450,398.113431)">
                    <path d="M0,0L0,100L50,50L0,0Z" style="fill:rgb(236,225,206);"/>
                </g>
                <g transform="matrix(1,0,0,1,-250,398.113431)">
                    <path d="M50,50L100,0L100,100L50,50Z" style="fill:rgb(236,225,206);"/>
                </g>
                <g transform="matrix(1,0,0,1,-250,398.113431)">
                    <path d="M0,0L0,100L50,50L0,0Z" style="fill:rgb(236,225,206);"/>
                </g>
                <g transform="matrix(0,-1,1,0,-350,498.113431)">
                    <path d="M50,50L100,0L100,100L50,50Z" style="fill:rgb(236,225,206);"/>
                </g>
                <g transform="matrix(0,-1,1,0,-350,498.113431)">
                    <path d="M0,0L0,100L50,50L0,0Z" style="fill:rgb(236,225,206);"/>
                </g>
                <g transform="matrix(0,-1,1,0,-150,498.113431)">
                    <path d="M50,50L100,0L100,100L50,50Z" style="fill:rgb(236,225,206);"/>
                </g>
                <g transform="matrix(0,-1,1,0,-150,498.113431)">
                    <path d="M0,0L0,100L50,50L0,0Z" style="fill:rgb(236,225,206);"/>
                </g>
            </g>
        </g>
    </g>
</svg>
