<?xml version="1.0" encoding="UTF-8" standalone="no"?>
<!DOCTYPE svg PUBLIC "-//W3C//DTD SVG 1.1//EN" "http://www.w3.org/Graphics/SVG/1.1/DTD/svg11.dtd">
<svg width="100%" height="100%" viewBox="0 0 600 600" version="1.1" xmlns="http://www.w3.org/2000/svg" xmlns:xlink="http://www.w3.org/1999/xlink" xml:space="preserve" xmlns:serif="http://www.serif.com/" style="fill-rule:evenodd;clip-rule:evenodd;stroke-linejoin:round;stroke-miterlimit:2;">
    <g transform="matrix(1,0,0,1,-650,0)">
        <g id="motif-hero-boomerang2" transform="matrix(1,0,0,1,1300,0)">
            <rect x="-650" y="0" width="600" height="600" style="fill:none;"/>
            <g transform="matrix(0.187382,0,0,0.188635,-796.052091,12.265869)">
                <path d="M3837.205,127.098C3543.556,-121.352 993.128,1513.395 1035.99,2139.042C1086.422,2875.169 3942.181,2598.711 3938.883,2372.9C3935.014,2108.067 3207.007,2350.748 3023.785,1753.937C2806.45,1046.008 4118.743,365.302 3837.205,127.098Z" style="fill:rgb(56,144,155);"/>
            </g>
            <g transform="matrix(0.187382,0,0,0.188635,-816.052091,-7.734131)">
                <path d="M3837.205,127.098C3543.556,-121.352 993.128,1513.395 1035.99,2139.042C1086.422,2875.169 3942.181,2598.711 3938.883,2372.9C3935.014,2108.067 3207.007,2350.748 3023.785,1753.937C2806.45,1046.008 4118.743,365.302 3837.205,127.098Z" style="fill:rgb(30,155,155);"/>
                <clipPath id="_clip1">
                    <path d="M3837.205,127.098C3543.556,-121.352 993.128,1513.395 1035.99,2139.042C1086.422,2875.169 3942.181,2598.711 3938.883,2372.9C3935.014,2108.067 3207.007,2350.748 3023.785,1753.937C2806.45,1046.008 4118.743,365.302 3837.205,127.098Z"/>
                </clipPath>
                <g clip-path="url(#_clip1)">
                    <g transform="matrix(1,0,0,1,58.70348,58.313762)">
                        <path d="M3837.205,127.098C3543.556,-121.352 993.128,1513.395 1035.99,2139.042C1086.422,2875.169 3942.181,2598.711 3938.883,2372.9C3935.014,2108.067 3207.007,2350.748 3023.785,1753.937C2806.45,1046.008 4118.743,365.302 3837.205,127.098Z" style="fill:rgb(56,155,155);"/>
                    </g>
                </g>
            </g>
        </g>
    </g>
</svg>
